<mxfile host="draw.io" modified="2024-09-16T12:00:00.000Z" agent="Mozilla/5.0" etag="solution1" version="24.6.4" type="device">
  <diagram name="Page-1" id="solution1-diagram">
    <mxGraphModel dx="1169" dy="827" grid="1" gridSize="10" guides="1" tooltips="1" connect="1" arrows="1" fold="1" page="1" pageScale="1" pageWidth="1169" pageHeight="827" math="0" shadow="0">
      <root>
        <mxCell id="0" />
        <mxCell id="1" parent="0" />
        
        <!-- Application -->
        <mxCell id="app-1" value="pymongo-api" style="rounded=1;whiteSpace=wrap;html=1;fillColor=#E8F5E8;strokeColor=#4CAF50;strokeWidth=2;" vertex="1" parent="1">
          <mxGeometry x="80" y="100" width="120" height="60" as="geometry" />
        </mxCell>
        
        <!-- mongos Router -->
        <mxCell id="mongos-1" value="mongos&#xa;Router" style="rounded=1;whiteSpace=wrap;html=1;fillColor=#E3F2FD;strokeColor=#2196F3;strokeWidth=2;" vertex="1" parent="1">
          <mxGeometry x="320" y="100" width="100" height="60" as="geometry" />
        </mxCell>
        
        <!-- Config Server -->
        <mxCell id="config-1" value="configSrv" style="rounded=1;whiteSpace=wrap;html=1;fillColor=#FFF3E0;strokeColor=#FF9800;strokeWidth=2;" vertex="1" parent="1">
          <mxGeometry x="520" y="100" width="100" height="60" as="geometry" />
        </mxCell>
        
        <!-- Shard 1 -->
        <mxCell id="shard1" value="shard1&#xa;(Primary)" style="shape=cylinder3;whiteSpace=wrap;html=1;boundedLbl=1;backgroundOutline=1;size=15;fillColor=#F3E5F5;strokeColor=#9C27B0;strokeWidth=2;" vertex="1" parent="1">
          <mxGeometry x="220" y="280" width="100" height="80" as="geometry" />
        </mxCell>
        
        <!-- Shard 2 -->
        <mxCell id="shard2" value="shard2&#xa;(Primary)" style="shape=cylinder3;whiteSpace=wrap;html=1;boundedLbl=1;backgroundOutline=1;size=15;fillColor=#F3E5F5;strokeColor=#9C27B0;strokeWidth=2;" vertex="1" parent="1">
          <mxGeometry x="420" y="280" width="100" height="80" as="geometry" />
        </mxCell>
        
        <!-- Connections -->
        <!-- App to mongos -->
        <mxCell id="conn1" style="edgeStyle=orthogonalEdgeStyle;rounded=0;orthogonalLoop=1;jettySize=auto;html=1;exitX=1;exitY=0.5;exitDx=0;exitDy=0;entryX=0;entryY=0.5;entryDx=0;entryDy=0;" edge="1" parent="1" source="app-1" target="mongos-1">
          <mxGeometry relative="1" as="geometry" />
        </mxCell>
        
        <!-- mongos to config -->
        <mxCell id="conn2" style="edgeStyle=orthogonalEdgeStyle;rounded=0;orthogonalLoop=1;jettySize=auto;html=1;exitX=1;exitY=0.5;exitDx=0;exitDy=0;entryX=0;entryY=0.5;entryDx=0;entryDy=0;" edge="1" parent="1" source="mongos-1" target="config-1">
          <mxGeometry relative="1" as="geometry" />
        </mxCell>
        
        <!-- mongos to shard1 -->
        <mxCell id="conn3" style="edgeStyle=orthogonalEdgeStyle;rounded=0;orthogonalLoop=1;jettySize=auto;html=1;exitX=0.25;exitY=1;exitDx=0;exitDy=0;entryX=0.5;entryY=0;entryDx=0;entryDy=0;entryPerimeter=0;" edge="1" parent="1" source="mongos-1" target="shard1">
          <mxGeometry relative="1" as="geometry" />
        </mxCell>
        
        <!-- mongos to shard2 -->
        <mxCell id="conn4" style="edgeStyle=orthogonalEdgeStyle;rounded=0;orthogonalLoop=1;jettySize=auto;html=1;exitX=0.75;exitY=1;exitDx=0;exitDy=0;entryX=0.5;entryY=0;entryDx=0;entryDy=0;entryPerimeter=0;" edge="1" parent="1" source="mongos-1" target="shard2">
          <mxGeometry relative="1" as="geometry" />
        </mxCell>
      </root>
    </mxGraphModel>
  </diagram>
</mxfile>